Patient4_TMGait_0pt4_01_right_29_EMG.mot
version=1
nRows=33
nColumns=33
inDegrees=no
endheader
time	1LAddLong	2LGlutMax	3LGlutMed	4LIliopsoas	5LSemiMemb	6LBicFemLong	7LRecFem	8LVastMed	9LVastLat	10LGasMed	11LTibAnt	12lTibPost	13LPeroneusLong	14LSol	15LExtDigLong	16LFlexDigLong	17RAddLong	18RGlutMax	19RGlutMed	20RIliopsoas	21RSemiMemb	22RBicFemLong	23RRecFem	24RVastMed	25RVastLat	26RGasMed	27RTibAnt	28RTibPost	29RPeroneusLong	30RSol	31RExtDigLong	32RFlexDigLong
37.41	0.013733	0.08194	-0.036316	0.000916	0.032196	-0.042419	0.0914	-0.000916	-0.037537	-0.037689	0.039978	-0.01297	0.001373	-0.04715	-0.019073	0.037079	0.017395	-0.092316	0.023499	0.028534	0.020599	-0.096588	0.012512	-0.095978	0.014801	0.004578	-0.028839	-0.003967	0.005951	-0.074158	0	0.00946
37.411	0.013733	0.070038	-0.027008	0.014954	0.038452	-0.004425	0.016937	-0.005646	-0.061493	0.038452	0.0354	-0.014343	0	-0.020752	-0.030365	-0.004272	0.054474	-0.094452	0.068512	-0.012512	0.029907	-0.12222	-0.039978	-0.087738	0.007019	0.010986	-0.12543	0.003815	-0.038605	-0.069122	-0.002136	0.001221
37.412	0.007935	0.064697	0.10117	0.003204	0.028534	-0.019531	-0.090942	0.003662	-0.06897	0.061646	0.014801	-0.013275	0.021667	-0.028839	-0.010529	-0.060883	0.1033	-0.11002	0.11383	-0.036926	0.036926	-0.16037	-0.058136	-0.13611	0.017853	0.006561	-0.23926	-0.007782	-0.1741	0.035706	-0.009766	0.002747
37.413	-0.001678	0.039368	0.12878	0.000458	0.016479	-0.010376	-0.051727	0.007019	-0.058746	0.063477	0.034027	-0.020447	0.002747	-0.032501	-0.000763	-0.058289	0.086823	-0.14343	0.075836	0.022278	0.03006	-0.14893	-0.089111	-0.18112	0.013123	0.005341	-0.27573	-0.000458	-0.15106	-0.029755	-0.001221	0.001678
37.414	-0.005188	0.038757	0.072174	-0.0177	0.009766	-0.009003	-0.082703	-0.002747	0.011139	0.06424	0.16357	-0.018005	-0.029297	-0.020447	0.007172	-0.036469	0.053558	-0.16327	0.030518	-0.10712	0.047913	-0.14252	-0.063324	-0.19073	0.017548	0.022125	-0.38208	-0.005188	0.10727	-0.13077	-0.004272	0.000763
37.415	0.010071	0.016022	0.077667	-0.007629	0.011597	-0.040283	-0.11383	-0.000305	-0.014343	0.062256	0.24506	-0.020447	-0.045776	-0.035095	0.011902	-0.036621	0.007935	-0.16266	-0.029755	-0.15778	0.046844	-0.15793	-0.019531	-0.17227	0.015717	0.019073	-0.1236	0.00061	0.30975	-0.10346	-0.002899	0.001068
37.416	0.005646	0.039978	0.044403	-0.011292	0.020752	-0.03418	-0.047455	-0.01358	-0.022278	0.04364	0.13779	-0.011749	-0.079651	-0.070343	-0.008392	-0.058899	-0.040131	-0.17273	-0.30151	-0.10498	0.038452	-0.15427	-0.037537	-0.18662	0.012512	0.013885	0.4277	-0.00412	-0.51224	-0.10452	-0.002747	-0.004272
37.417	-0.003357	0.035858	0.031128	0.003204	0.02533	-0.006256	0.072021	-0.008698	0.041199	0.04776	-0.25131	-0.012054	-0.023346	-0.093384	0.097351	-0.050964	-0.072021	-0.16144	-0.14984	0.037842	0.04303	-0.1918	-0.086975	-0.13626	0.009003	0.006104	0.74112	0.000153	-0.63644	-0.054321	-0.002289	0.000916
37.418	0	0.082703	0.016327	0.006256	0.019073	0.009155	0.14023	-0.011292	0.12695	0.016937	-0.22064	-0.016022	0.003662	-0.069122	0.007019	-0.021362	-0.061188	-0.1506	0.15015	0.20996	0.040436	-0.21729	-0.028534	-0.087738	-0.000763	-0.00061	0.25299	-0.005341	-0.24017	-0.024567	-0.001984	-0.000305
37.419	-0.011902	0.02594	0.016479	0.008087	-0.007019	0.027924	0.11322	-0.007324	0.10773	0.016174	-0.12177	-0.019226	0.024567	-0.045776	-0.18417	-0.020142	-0.063934	-0.11002	0.46875	0.26123	0.051727	-0.23605	-0.025787	-0.021057	-0.001984	0.001068	-0.31494	-0.005341	0.52917	-0.005188	-0.00351	-0.010071
37.42	-0.005035	-0.002747	0.006866	0.005188	-0.019989	0.015717	0.080261	-0.012665	0.044403	-0.009155	0.02594	-0.011444	0.055237	0.004578	-0.10864	-0.01709	-0.048218	-0.18249	-0.044098	0.08194	0.058899	-0.27054	0.038452	-0.029755	0.003204	0.001068	-0.13672	-0.008087	0.52353	0.003967	0.000305	-0.002441
37.421	0.00824	0.050659	0.03479	-0.017395	0.029602	0.000305	0.006409	-0.015411	-0.008545	-0.045624	0.058594	-0.031128	0.054169	0.084534	0.17883	-0.013885	-0.057373	-0.082703	-0.040131	-0.023041	0.058594	-0.3212	0.065918	-0.006409	0.019226	0.002136	-0.1445	-0.007477	0.39352	0.068054	-0.005798	0.005188
37.422	0.003662	0.044403	-0.014343	-0.01297	0.045166	0.01236	-0.055389	-0.009613	0.021515	0.011139	-0.052032	-0.037537	-0.031128	0.13977	0.059204	-0.010681	-0.035858	-0.037079	-0.081482	-0.015869	0.035095	-0.40588	0.00824	-0.014801	0.017395	0.00824	-0.029755	-0.006256	0.34195	0.086517	0.001373	0.001526
37.423	0.006256	0.023956	-0.090332	-0.002441	0.033569	0.002441	-0.050507	-0.006866	0.069427	0.020142	-0.024109	-0.036774	-0.10529	0.092926	0.80017	-0.007935	-0.011597	-0.10284	-0.12772	-0.062866	0.033569	-0.49881	-0.056305	-0.036163	0.025024	0.009766	0.10223	-0.007629	0.28656	0.039063	-0.000153	0.019379
37.424	0.008698	-0.000916	-0.16205	-0.008087	0.023651	-0.021057	-0.016327	-0.00473	0.021667	-0.013733	0.067902	-0.032654	0.001831	0.10651	1.1893	-0.009003	-0.014648	-0.12192	-0.076294	-0.073547	0.046539	-0.57114	-0.058899	-0.019684	0.011749	0.010071	-0.074158	-0.014191	0.14954	-0.001526	-0.001068	0.016022
37.425	0.030518	-0.011444	-0.16693	0.00351	0.029297	-0.023956	0.009613	-0.010223	0.014648	-0.050049	0.11383	-0.023651	0.023499	0.099487	-0.57709	0.01236	-0.004883	-0.11581	0.19409	-0.13931	0.059204	-0.67947	-0.050354	0.000763	0.001068	0.018616	-0.3923	0.000305	-0.345	-0.081635	-0.001221	0.016327
37.426	0.029297	0.010834	-0.12985	-0.003052	0.046997	-0.034637	0.000916	-0.006104	0.016479	-0.056915	0.17731	-0.023499	-0.023499	0.080109	-0.59219	-0.040436	-0.00473	-0.12131	0.13031	-0.14145	0.053558	-0.79285	-0.037231	-0.014191	0.024261	0.022125	-0.55191	0.001221	-0.49332	-0.10468	-0.00473	0.023346
37.427	0.014191	-0.035858	-0.06485	-0.006256	0.029755	-0.006866	-0.006256	-0.00824	0.004272	-0.088196	0.083618	-0.023804	0.00824	0.035248	-0.42893	-0.2002	-0.014648	-0.12726	0.063324	-0.065308	-0.012207	-0.97351	0.05722	-0.017242	-0.022125	0.025177	-0.17136	0.000458	-0.27618	-0.044556	0.000763	0.027466
37.428	0.019836	-0.072174	0.018158	-0.009003	-0.01358	0.008087	0.019073	-0.006866	0.003357	-0.12268	-0.1062	-0.019073	0.027466	0.14114	-0.64774	-0.43182	-0.013428	-0.11948	-0.27695	-0.026855	-0.004578	-1.0637	0.12207	0.01709	-0.018463	0.026245	-0.074158	-0.001373	-0.12985	0.02594	0.000153	0.03067
37.429	0.019073	-0.033264	0.10696	0.000458	-0.005493	0.016632	0.026855	-0.005493	0.003815	-0.03952	-0.09964	-0.022125	-0.004272	0.15076	-0.55054	0.39337	-0.00946	-0.084991	-0.25375	-0.04425	0.011597	-0.8107	0.15137	0.059357	-0.006866	0.017242	-0.12772	0.000305	0.030518	-0.010223	-0.002441	0.03067
37.43	0.005035	-0.010529	0.099335	0.007019	-0.007019	0.06958	0.019684	-0.00946	0.011597	0.1001	0.014343	-0.021362	-0.093842	0.12619	-0.30197	0.18936	0.000305	-0.093689	0.1329	-0.027161	0.015106	-0.69336	0.17456	0.034943	-0.011292	0.030212	-0.13306	0.00061	0.10574	-0.053406	0.001526	0.039215
37.431	0.004883	-0.010834	0.034485	0.002747	0.036469	-0.062103	0.018921	-0.005798	0.047302	0.15274	-0.016632	-0.019684	-0.1059	0.11139	-0.17029	-0.17548	0.006104	-0.076904	0.39551	-0.011902	0.025482	-0.58777	0.096588	-0.019226	-0.010681	0.041504	-0.015564	-0.005798	0.091095	0.052795	-0.001221	0.044556
37.432	0.005646	-0.020447	-0.014801	0.013123	0.042114	-0.1004	0.019379	-0.010376	0.024414	0.1033	-0.052643	-0.013275	-0.062408	0.02533	-0.014801	0.21713	-0.003815	-0.10757	0.24567	0.031281	0.010834	-0.44449	0.099182	-0.057373	-0.012512	0.052032	0.10147	-0.001678	0.10849	0.088043	0.002136	0.054169
37.433	0.004425	0.002899	0.015411	-0.011597	0.004578	-0.05249	-0.009003	0.001831	-0.000916	0.000458	-0.043945	-0.020142	-0.007172	-0.034943	-0.05188	0.20554	-0.006256	-0.12573	0.005951	0.009918	0.014191	-0.35294	0.061951	-0.037994	-0.014801	0.058594	0.14938	0.000458	-0.2803	-0.028076	-0.001373	0.066986
37.434	0.007172	-0.015259	0.055237	-0.013123	0.02182	-0.070953	-0.045013	0.000153	0.005341	-0.06485	-0.083771	-0.012207	0.055084	-0.224	-0.040741	0.035553	0.007172	-0.14984	0.059509	-0.028534	0.027161	-0.27527	0.05127	-0.11643	-0.029755	0.061035	0.18524	-0.001984	-0.085602	-0.001984	-0.004578	0.069427
37.435	0.011749	-0.010681	0.048828	0.013428	0.060577	-0.092773	-0.035858	0.002441	-0.013123	-0.13336	-0.00824	-0.00412	0.075378	-0.28107	0.099182	-0.17014	0.016174	-0.097961	0.16739	-0.037231	0.041351	-0.22156	0.036163	-0.085144	-0.004883	0.046387	0.2446	-0.005798	-0.34698	0.075226	-0.003357	0.059357
37.436	0.013123	0.026855	0.087433	-0.000458	0.044403	-0.042267	-0.003967	-0.001984	-0.010376	0.04425	0.082703	-0.009003	0.021515	-0.25482	0.12192	0.26825	0.018158	-0.077515	0.20248	0.037537	0.022278	-0.14603	0.033112	-0.081787	-0.00412	0.033112	0.1413	-0.007324	-0.34698	0.096283	0	0.029755
37.437	0.006409	-0.015106	0.10132	-0.003815	0.039368	0.03952	0.005035	-0.005341	-0.00351	0.22125	0.073853	-0.010529	-0.032959	-0.15976	0.11795	0.059204	0.004883	-0.089569	0.070343	0.068817	-0.049896	-0.069275	0.013733	-0.082703	-0.019226	0.023041	-0.12894	-0.006561	-0.031738	0.072632	-0.000458	-0.017548
37.438	0.002899	-0.011597	0.046997	0.014496	0.030823	-0.002747	0.021057	-0.001373	-0.00473	0.14603	0.045471	-0.011444	-0.010223	-0.19959	0.1181	-0.029144	0.000153	-0.095367	0.17746	0.044556	-0.16037	-0.015259	0.018005	-0.083771	-0.003967	0.010986	-0.063629	-0.006256	0.13306	0.037994	0.000153	-0.066986
37.439	0.004883	-0.032959	0.039063	0.000763	0.036011	-0.037994	0.099182	-0.005951	0.016479	-0.033264	-0.027161	0	0.003815	-0.10193	0.10681	-0.051117	-0.014801	-0.093842	0.34866	0.04364	-0.18097	0.057831	0.023041	-0.075989	-0.013428	-0.016022	0.177	-0.008698	-0.1622	0.001221	-0.00061	-0.090179
37.44	-0.008392	-0.005951	0.11383	0.005493	0.028687	-0.027466	0.12192	0.004883	0.018768	-0.018311	-0.001526	-0.001526	-0.022583	0.088959	0.082397	-0.038147	0.001984	-0.12054	0.42541	0.022888	0.04715	0.10849	0.026245	-0.057068	-0.010223	-0.036316	0.30701	0.006104	-0.1413	0.002441	0.002594	-0.096893
37.441	-0.002899	-0.032501	0.042267	0.000153	0.021057	0.043182	0.11078	0.010681	0.059357	0.1062	-0.004272	-0.002899	-0.03006	0.19974	0.069733	-0.046082	0.004578	-0.10864	0.28397	0.014648	0.10132	0.13626	0.028839	-0.06134	-0.013123	-0.07431	0.37628	-0.006866	0.16159	-0.040283	-0.002441	-0.090485
37.442	-0.002136	0.027161	-0.059662	-0.005951	0.018921	-0.088043	0.041504	-0.001831	0.072632	-0.075378	0.002289	-0.002594	-0.005798	0.1384	0.16098	-0.04364	-0.015259	-0.095825	0.11551	0.051575	0.000763	0.19638	-0.011902	-0.072479	-0.022278	-0.11383	0.14832	-0.000153	0.12619	-0.070343	0.000305	-0.081329
